<svg width="72" height="72" viewBox="0 0 72 72" fill="none" xmlns="http://www.w3.org/2000/svg">
<path d="M0 63.3103V54.6207H17.3793V72H0V63.3103ZM14.8966 63.3103V57.1034H2.48276V69.5172H14.8966V63.3103ZM4.96552 63.3103V59.5862H12.4138V67.0345H4.96552V63.3103ZM22.3448 70.7586V69.5172H19.8621V64.5517H22.3448V57.1034H24.8276V54.6207H19.8621V52.1379H9.93103V49.6552H12.4138V47.1724H7.44828V52.1379H4.96552V49.6552H0V47.1724H4.96552V42.2069H2.48276V44.6897H0V39.7241H4.96552V42.2069H7.44828V44.6897H9.93103V42.2069H12.4138V44.6897H17.3793V42.2069H14.8966V39.7241H7.44828V37.2414H14.8966V34.7586H7.44828V32.2759H4.96552V34.7586H0V27.3103H2.48276V29.7931H17.3793V27.3103H14.8966V24.8276H9.93103V27.3103H7.44828V24.8276H2.48276V19.8621H7.44828V24.8276H9.93103V22.3448H14.8966V19.8621H17.3793V22.3448H14.8966V24.8276H17.3793V27.3103H19.8621V22.3448H22.3448V19.8621H19.8621V12.4138H24.8276V14.8966H27.3103V17.3793H24.8276V19.8621H27.3103V34.7586H22.3448V32.2759H19.8621V34.7586H17.3793V37.2414H14.8966V39.7241H17.3793V42.2069H19.8621V44.6897H24.8276V42.2069H22.3448V39.7241H19.8621V37.2414H24.8276V42.2069H27.3103V37.2414H29.7931V42.2069H32.2759V34.7586H34.7586V32.2759H37.2414V34.7586H34.7586V37.2414H37.2414V39.7241H44.6897V37.2414H42.2069V34.7586H39.7241V29.7931H37.2414V27.3103H39.7241V24.8276H42.2069V22.3448H39.7241V19.8621H37.2414V24.8276H34.7586V22.3448H32.2759V24.8276H29.7931V22.3448H32.2759V19.8621H29.7931V12.4138H27.3103V9.93103H29.7931V12.4138H32.2759V2.48276H34.7586V7.44828H39.7241V4.96552H37.2414V0H42.2069V2.48276H39.7241V4.96552H44.6897V2.48276H47.1724V0H52.1379V7.44828H47.1724V4.96552H44.6897V9.93103H47.1724V17.3793H49.6552V14.8966H52.1379V27.3103H57.1034V24.8276H54.6207V19.8621H59.5862V27.3103H64.5517V24.8276H62.069V19.8621H64.5517V24.8276H67.0345V22.3448H72V27.3103H69.5172V24.8276H67.0345V27.3103H64.5517V34.7586H67.0345V37.2414H64.5517V39.7241H59.5862V42.2069H57.1034V44.6897H52.1379V42.2069H49.6552V39.7241H47.1724V44.6897H49.6552V47.1724H57.1034V49.6552H62.069V47.1724H59.5862V44.6897H62.069V42.2069H64.5517V44.6897H67.0345V47.1724H69.5172V42.2069H67.0345V39.7241H72V47.1724H69.5172V52.1379H72V57.1034H69.5172V64.5517H72V67.0345H64.5517V72H57.1034V69.5172H62.069V67.0345H57.1034V62.069H54.6207V67.0345H52.1379V69.5172H54.6207V72H49.6552V64.5517H47.1724V69.5172H44.6897V67.0345H42.2069V57.1034H44.6897V64.5517H47.1724V57.1034H49.6552V52.1379H47.1724V49.6552H44.6897V47.1724H47.1724V44.6897H44.6897V42.2069H42.2069V52.1379H44.6897V54.6207H39.7241V59.5862H37.2414V64.5517H39.7241V67.0345H37.2414V69.5172H42.2069V72H37.2414V69.5172H34.7586V67.0345H32.2759V72H22.3448V70.7586ZM29.7931 67.0345V64.5517H32.2759V57.1034H27.3103V59.5862H29.7931V62.069H24.8276V64.5517H22.3448V67.0345H24.8276V69.5172H29.7931V67.0345ZM64.5517 64.5517V62.069H67.0345V57.1034H69.5172V54.6207H67.0345V47.1724H64.5517V54.6207H67.0345V57.1034H64.5517V59.5862H62.069V67.0345H64.5517V64.5517ZM52.1379 63.3103V62.069H49.6552V64.5517H52.1379V63.3103ZM37.2414 58.3448V57.1034H34.7586V59.5862H37.2414V58.3448ZM59.5862 55.8621V52.1379H52.1379V59.5862H59.5862V55.8621ZM54.6207 55.8621V54.6207H57.1034V57.1034H54.6207V55.8621ZM34.7586 53.3793V52.1379H39.7241V49.6552H34.7586V47.1724H32.2759V49.6552H34.7586V52.1379H29.7931V49.6552H27.3103V52.1379H24.8276V49.6552H22.3448V47.1724H19.8621V44.6897H17.3793V47.1724H14.8966V49.6552H17.3793V47.1724H19.8621V49.6552H22.3448V52.1379H24.8276V54.6207H34.7586V53.3793ZM27.3103 45.931V44.6897H24.8276V47.1724H27.3103V45.931ZM39.7241 44.6897V42.2069H34.7586V44.6897H37.2414V47.1724H39.7241V44.6897ZM54.6207 40.9655V39.7241H52.1379V42.2069H54.6207V40.9655ZM59.5862 38.4828V37.2414H62.069V29.7931H59.5862V32.2759H57.1034V34.7586H54.6207V32.2759H49.6552V29.7931H47.1724V27.3103H49.6552V19.8621H47.1724V17.3793H44.6897V14.8966H42.2069V17.3793H39.7241V9.93103H42.2069V12.4138H44.6897V9.93103H42.2069V7.44828H39.7241V9.93103H37.2414V17.3793H39.7241V19.8621H42.2069V17.3793H44.6897V24.8276H42.2069V27.3103H39.7241V29.7931H42.2069V34.7586H44.6897V32.2759H49.6552V34.7586H52.1379V37.2414H57.1034V39.7241H59.5862V38.4828ZM57.1034 36V34.7586H59.5862V37.2414H57.1034V36ZM17.3793 33.5172V32.2759H19.8621V29.7931H17.3793V32.2759H14.8966V34.7586H17.3793V33.5172ZM24.8276 28.5517V27.3103H22.3448V29.7931H24.8276V28.5517ZM24.8276 16.1379V14.8966H22.3448V17.3793H24.8276V16.1379ZM34.7586 14.8966V12.4138H32.2759V17.3793H34.7586V14.8966ZM49.6552 3.72414V2.48276H47.1724V4.96552H49.6552V3.72414ZM69.5172 70.7586V69.5172H72V72H69.5172V70.7586ZM69.5172 34.7586V32.2759H67.0345V29.7931H69.5172V32.2759H72V37.2414H69.5172V34.7586ZM0 8.68965V0H17.3793V17.3793H0V8.68965ZM14.8966 8.68965V2.48276H2.48276V14.8966H14.8966V8.68965ZM4.96552 8.68965V4.96552H12.4138V12.4138H4.96552V8.68965ZM54.6207 8.68965V0H72V17.3793H54.6207V8.68965ZM69.5172 8.68965V2.48276H57.1034V14.8966H69.5172V8.68965ZM59.5862 8.68965V4.96552H67.0345V12.4138H59.5862V8.68965ZM19.8621 8.68965V7.44828H22.3448V9.93103H19.8621V8.68965ZM24.8276 6.2069V4.96552H22.3448V0H24.8276V2.48276H27.3103V0H29.7931V2.48276H27.3103V7.44828H24.8276V6.2069Z" fill="black"/>
</svg>
